<svg width="35" height="32" viewBox="0 0 35 32" fill="none" xmlns="http://www.w3.org/2000/svg">
<g clip-path="url(#clip0_713_2549)">
<path d="M8.02285 1.84616V8H1.85143V1.84616H8.02285ZM9.8743 0H0V9.84614H9.8743V0Z" fill="black"/>
<path d="M6.47988 3.50781H3.51758V6.46169H6.47988V3.50781Z" fill="black"/>
<path d="M8.02285 24.0004V30.1543H1.85143V24.0004H8.02285ZM9.8743 22.1543H0V32.0004H9.8743V22.1543Z" fill="black"/>
<path d="M6.47988 25.6611H3.51758V28.6149H6.47988V25.6611Z" fill="black"/>
<path d="M32.7084 24.0004V30.1543H26.537V24.0004H32.7084ZM34.5599 22.1543H24.6855V32.0004H34.5599V22.1543Z" fill="black"/>
<path d="M31.1654 25.6611H28.2031V28.6149H31.1654V25.6611Z" fill="black"/>
<path d="M34.5604 0H32.0918V2.46154H34.5604V0Z" fill="#CC1F1F"/>
<path d="M32.0916 0H29.623V2.46154H32.0916V0Z" fill="#CC1F1F"/>
<path d="M29.6228 0H27.1543V2.46154H29.6228V0Z" fill="#CC1F1F"/>
<path d="M27.1542 0H24.6855V2.46154H27.1542V0Z" fill="#CC1F1F"/>
<path d="M24.6853 0H22.2168V2.46154H24.6853V0Z" fill="#CC1F1F"/>
<path d="M34.5604 2.46191H32.0918V4.92345H34.5604V2.46191Z" fill="#CC1F1F"/>
<path d="M34.5604 4.92285H32.0918V7.38441H34.5604V4.92285Z" fill="#CC1F1F"/>
<path d="M34.5604 7.38477H32.0918V9.84627H34.5604V7.38477Z" fill="#CC1F1F"/>
<path d="M34.5604 9.8457H32.0918V12.3073H34.5604V9.8457Z" fill="#CC1F1F"/>
<path d="M32.0916 2.46191H29.623V4.92345H32.0916V2.46191Z" fill="#CC1F1F"/>
<path d="M29.6502 7.35706V4.89551H27.1816V7.35706H29.6502Z" fill="#CC1F1F"/>
<path d="M27.1815 9.81893V7.35742H24.7129V9.81893H27.1815Z" fill="#CC1F1F"/>
<path d="M24.7127 12.2799V9.81836H22.2441V12.2799H24.7127Z" fill="#CC1F1F"/>
<path d="M19.8047 14.7691H22.2732V12.3076H19.8047V14.7691Z" fill="#CC1F1F"/>
<path d="M17.3359 17.231H19.8045V14.7695H17.3359V17.231Z" fill="#CC1F1F"/>
<path d="M2.46858 14.7695H0V17.2311H2.46858V14.7695Z" fill="black"/>
<path d="M4.93732 17.2305H2.46875V19.692H4.93732V17.2305Z" fill="black"/>
<path d="M9.87486 14.7695H7.40625V17.2311H9.87486V14.7695Z" fill="black"/>
<path d="M14.8123 14.7695H12.3438V17.2311H14.8123V14.7695Z" fill="black"/>
<path d="M4.93732 12.3076H2.46875V14.7691H4.93732V12.3076Z" fill="black"/>
<path d="M12.3435 12.3076H9.875V14.7691H12.3435V12.3076Z" fill="black"/>
<path d="M12.3435 17.2305H9.875V19.692H12.3435V17.2305Z" fill="black"/>
<path d="M14.8123 19.6924H12.3438V22.154H14.8123V19.6924Z" fill="black"/>
<path d="M17.2791 19.6924H14.8105V22.154H17.2791V19.6924Z" fill="black"/>
<path d="M19.7478 22.1543H17.2793V24.6158H19.7478V22.1543Z" fill="black"/>
<path d="M32.0916 14.7695H29.623V17.2311H32.0916V14.7695Z" fill="black"/>
<path d="M29.6228 14.7695H27.1543V17.2311H29.6228V14.7695Z" fill="black"/>
<path d="M29.6228 12.3076H27.1543V14.7691H29.6228V12.3076Z" fill="black"/>
<path d="M27.1542 17.2305H24.6855V19.692H27.1542V17.2305Z" fill="black"/>
<path d="M22.2166 19.6924H19.748V22.154H22.2166V19.6924Z" fill="black"/>
<path d="M29.6228 19.6924H27.1543V22.154H29.6228V19.6924Z" fill="black"/>
<path d="M34.5604 17.2305H32.0918V19.692H34.5604V17.2305Z" fill="black"/>
<path d="M17.2791 27.0771H14.8105V29.5387H17.2791V27.0771Z" fill="black"/>
<path d="M14.8123 29.5381H12.3438V31.9997H14.8123V29.5381Z" fill="black"/>
<path d="M19.7478 29.5381H17.2793V31.9997H19.7478V29.5381Z" fill="black"/>
<path d="M22.2166 27.0771H19.748V29.5387H22.2166V27.0771Z" fill="black"/>
<path d="M14.8123 24.6152H12.3438V27.0768H14.8123V24.6152Z" fill="black"/>
<path d="M19.7478 24.6152H17.2793V27.0768H19.7478V24.6152Z" fill="black"/>
<path d="M14.8123 2.46191H12.3438V4.92345H14.8123V2.46191Z" fill="black"/>
<path d="M17.2791 0H14.8105V2.46154H17.2791V0Z" fill="black"/>
<path d="M14.8123 7.38477H12.3438V9.84627H14.8123V7.38477Z" fill="black"/>
<path d="M19.7478 7.38477H17.2793V9.84627H19.7478V7.38477Z" fill="black"/>
<path d="M14.8123 9.8457H12.3438V12.3073H14.8123V9.8457Z" fill="black"/>
<path d="M7.40605 12.3076H4.9375V14.7691H7.40605V12.3076Z" fill="black"/>
<path d="M19.7478 2.46191H17.2793V4.92345H19.7478V2.46191Z" fill="black"/>
</g>
<defs>
<clipPath id="clip0_713_2549">
<rect width="34.56" height="32" fill="white"/>
</clipPath>
</defs>
</svg>
