<svg width="470" height="435" viewBox="0 0 470 435" fill="none" xmlns="http://www.w3.org/2000/svg">
<g clip-path="url(#clip0_472_8542)">
<path d="M109.061 25.0962V108.75H25.1679V25.0962H109.061ZM134.229 0H0V133.846H134.229V0Z" fill="black"/>
<path d="M88.0872 47.6826H47.8184V87.8369H88.0872V47.6826Z" fill="black"/>
<path d="M109.061 326.25V409.904H25.1679V326.25H109.061ZM134.229 301.154H0V435H134.229V301.154Z" fill="black"/>
<path d="M88.0872 348.837H47.8184V388.99H88.0872V348.837Z" fill="black"/>
<path d="M444.631 326.25V409.904H360.739V326.25H444.631ZM469.799 301.154H335.57V435H469.799V301.154Z" fill="black"/>
<path d="M423.659 348.837H383.391V388.99H423.659V348.837Z" fill="black"/>
<path d="M469.8 0H436.242V33.4615H469.8V0Z" fill="#CC1F1F"/>
<path d="M436.242 0H402.686V33.4615H436.242V0Z" fill="#CC1F1F"/>
<path d="M402.686 0H369.129V33.4615H402.686V0Z" fill="#CC1F1F"/>
<path d="M369.128 0H335.57V33.4615H369.128V0Z" fill="#CC1F1F"/>
<path d="M335.57 0H302.014V33.4615H335.57V0Z" fill="#CC1F1F"/>
<path d="M469.8 33.4609H436.242V66.9224H469.8V33.4609Z" fill="#CC1F1F"/>
<path d="M469.8 66.9229H436.242V100.385H469.8V66.9229Z" fill="#CC1F1F"/>
<path d="M469.8 100.385H436.242V133.846H469.8V100.385Z" fill="#CC1F1F"/>
<path d="M469.8 133.846H436.242V167.308H469.8V133.846Z" fill="#CC1F1F"/>
<path d="M436.242 33.4609H402.686V66.9224H436.242V33.4609Z" fill="#CC1F1F"/>
<path d="M403.063 100.013V66.5518H369.506V100.013H403.063Z" fill="#CC1F1F"/>
<path d="M369.505 133.475V100.014H335.947V133.475H369.505Z" fill="#CC1F1F"/>
<path d="M335.947 166.937V133.475H302.391V166.937H335.947Z" fill="#CC1F1F"/>
<path d="M269.207 200.775H302.764V167.313H269.207V200.775Z" fill="#CC1F1F"/>
<path d="M235.65 234.235H269.207V200.774H235.65V234.235Z" fill="#CC1F1F"/>
<path d="M33.5572 200.769H0V234.23H33.5572V200.769Z" fill="black"/>
<path d="M67.1138 234.231H33.5566V267.693H67.1138V234.231Z" fill="black"/>
<path d="M134.23 200.769H100.672V234.23H134.23V200.769Z" fill="black"/>
<path d="M201.342 200.769H167.785V234.23H201.342V200.769Z" fill="black"/>
<path d="M67.1138 167.308H33.5566V200.769H67.1138V167.308Z" fill="black"/>
<path d="M167.785 167.308H134.229V200.769H167.785V167.308Z" fill="black"/>
<path d="M167.785 234.231H134.229V267.693H167.785V234.231Z" fill="black"/>
<path d="M201.342 267.692H167.785V301.154H201.342V267.692Z" fill="black"/>
<path d="M234.901 267.692H201.344V301.154H234.901V267.692Z" fill="black"/>
<path d="M268.457 301.154H234.9V334.615H268.457V301.154Z" fill="black"/>
<path d="M436.242 200.769H402.686V234.23H436.242V200.769Z" fill="black"/>
<path d="M402.686 200.769H369.129V234.23H402.686V200.769Z" fill="black"/>
<path d="M402.686 167.308H369.129V200.769H402.686V167.308Z" fill="black"/>
<path d="M369.128 234.231H335.57V267.693H369.128V234.231Z" fill="black"/>
<path d="M302.014 267.692H268.457V301.154H302.014V267.692Z" fill="black"/>
<path d="M402.686 267.692H369.129V301.154H402.686V267.692Z" fill="black"/>
<path d="M469.8 234.231H436.242V267.693H469.8V234.231Z" fill="black"/>
<path d="M234.901 368.077H201.344V401.539H234.901V368.077Z" fill="black"/>
<path d="M201.342 401.538H167.785V435H201.342V401.538Z" fill="black"/>
<path d="M268.457 401.538H234.9V435H268.457V401.538Z" fill="black"/>
<path d="M302.014 368.077H268.457V401.539H302.014V368.077Z" fill="black"/>
<path d="M201.342 334.615H167.785V368.077H201.342V334.615Z" fill="black"/>
<path d="M268.457 334.615H234.9V368.077H268.457V334.615Z" fill="black"/>
<path d="M201.342 33.4609H167.785V66.9224H201.342V33.4609Z" fill="black"/>
<path d="M234.901 0H201.344V33.4615H234.901V0Z" fill="black"/>
<path d="M201.342 100.385H167.785V133.846H201.342V100.385Z" fill="black"/>
<path d="M268.457 100.385H234.9V133.846H268.457V100.385Z" fill="black"/>
<path d="M201.342 133.846H167.785V167.308H201.342V133.846Z" fill="black"/>
<path d="M100.672 167.308H67.1152V200.769H100.672V167.308Z" fill="black"/>
<path d="M268.457 33.4609H234.9V66.9224H268.457V33.4609Z" fill="black"/>
</g>
<defs>
<clipPath id="clip0_472_8542">
<rect width="469.8" height="435" fill="white"/>
</clipPath>
</defs>
</svg>
